<?xml version="1.0" standalone="no"?>
<!DOCTYPE svg PUBLIC "-//W3C//DTD SVG 20010904//EN"
 "http://www.w3.org/TR/2001/REC-SVG-20010904/DTD/svg10.dtd">
<svg version="1.0" xmlns="http://www.w3.org/2000/svg"
 width="3464.000000pt" height="3464.000000pt" viewBox="0 0 3464.000000 3464.000000"
 preserveAspectRatio="xMidYMid meet">

<g transform="translate(0.000000,3464.000000) scale(0.100000,-0.100000)"
fill="#000000" stroke="none">
<path d="M3715 30800 c-320 -16 -558 -51 -860 -125 -1033 -254 -1856 -865
-2251 -1670 -130 -267 -207 -528 -234 -800 -8 -79 -10 -3181 -8 -10955 l3
-10845 22 -115 c48 -248 105 -424 207 -636 138 -285 290 -498 531 -740 263
-264 506 -442 838 -614 464 -241 957 -385 1532 -448 151 -16 890 -17 13810
-17 11213 0 13674 2 13785 13 836 82 1559 354 2130 802 148 116 437 410 542
550 118 158 170 242 253 405 132 259 212 522 247 816 19 156 19 21634 0 21794
-50 424 -203 815 -456 1165 -254 352 -641 691 -1042 911 -492 271 -1024 433
-1629 496 -149 16 -1098 17 -13715 19 -7455 0 -13622 -2 -13705 -6z m6605
-2741 c30 -6 125 -14 210 -20 228 -14 355 -48 491 -130 116 -70 187 -142 242
-247 40 -77 59 -121 108 -252 10 -26 15 -138 19 -415 3 -209 10 -388 14 -398
7 -16 16 -18 53 -12 24 3 69 15 101 26 58 20 209 55 360 83 45 9 119 16 165
16 45 0 98 5 117 10 19 6 91 13 160 16 69 3 155 12 192 20 37 8 95 14 129 14
35 0 91 7 125 16 50 12 106 15 276 12 208 -4 215 -5 307 -36 127 -43 201 -87
295 -174 81 -74 136 -148 182 -245 31 -68 64 -168 64 -199 0 -13 7 -49 15 -81
8 -31 15 -82 15 -113 0 -31 6 -80 14 -110 8 -30 17 -93 21 -140 4 -47 13 -114
21 -150 8 -36 14 -110 14 -165 0 -56 7 -124 15 -155 8 -30 15 -86 15 -125 0
-38 7 -97 15 -130 8 -33 15 -96 15 -140 1 -44 6 -105 11 -135 5 -30 16 -116
24 -190 7 -74 18 -153 24 -175 6 -22 11 -72 11 -110 0 -39 5 -86 11 -105 6
-19 14 -95 19 -167 5 -73 13 -148 19 -166 6 -18 15 -86 20 -152 6 -66 14 -140
20 -165 6 -25 10 -92 11 -150 0 -58 7 -132 15 -165 8 -33 15 -82 15 -110 0
-27 5 -68 11 -90 5 -22 16 -101 24 -175 8 -74 19 -155 24 -180 6 -25 10 -90
11 -145 0 -55 7 -125 15 -155 8 -30 15 -80 15 -110 0 -30 7 -86 15 -125 8 -38
15 -115 15 -170 0 -55 5 -118 11 -140 5 -22 16 -101 24 -175 8 -74 19 -155 24
-180 6 -25 10 -70 11 -100 0 -30 5 -71 11 -90 6 -19 15 -101 19 -181 5 -81 13
-164 19 -185 6 -22 16 -84 21 -139 5 -55 14 -125 19 -155 5 -30 10 -96 10
-147 1 -51 8 -118 16 -150 8 -31 15 -88 15 -126 0 -38 6 -99 14 -136 8 -36 19
-113 25 -171 5 -58 14 -125 20 -150 6 -25 10 -83 11 -130 0 -47 7 -112 15
-145 8 -33 15 -94 15 -135 0 -41 7 -102 15 -135 8 -33 15 -103 15 -155 0 -52
7 -133 15 -180 20 -115 19 -235 -5 -355 -24 -125 -33 -150 -84 -240 -72 -126
-128 -189 -222 -247 -110 -68 -281 -136 -384 -152 -25 -4 -77 -14 -117 -22
-40 -8 -107 -14 -150 -14 -43 0 -94 -5 -113 -11 -19 -5 -87 -14 -150 -19 -63
-6 -137 -14 -165 -19 -27 -5 -86 -10 -130 -11 -44 0 -107 -7 -140 -15 -44 -11
-127 -15 -314 -15 -228 0 -263 2 -330 21 -153 42 -298 135 -393 251 -53 64
-142 241 -161 318 -31 128 -47 208 -47 236 0 16 -5 45 -11 64 -6 19 -15 103
-19 185 -5 83 -13 163 -19 179 -6 15 -15 83 -20 150 -5 66 -14 137 -20 156 -6
19 -11 73 -11 120 -1 47 -5 105 -11 130 -6 25 -14 97 -19 160 -5 63 -14 135
-19 160 -6 25 -15 95 -20 155 -5 61 -14 130 -20 155 -6 25 -10 90 -11 145 0
55 -7 125 -15 155 -8 30 -15 80 -15 110 -1 30 -5 75 -11 100 -5 25 -16 110
-24 190 -8 80 -19 170 -24 200 -5 30 -10 94 -10 142 -1 48 -6 99 -11 113 -6
15 -14 72 -19 128 -5 56 -14 114 -20 129 -6 16 -14 90 -17 165 -5 100 -12 148
-25 173 -11 23 -19 70 -23 138 -5 107 -11 131 -28 114 -21 -21 -27 -456 -28
-2041 0 -1644 0 -1664 -21 -1748 -21 -90 -36 -124 -115 -267 -111 -201 -283
-301 -639 -370 -72 -14 -471 -16 -3847 -16 -4058 0 -3764 -3 -3993 47 -254 55
-389 147 -514 352 -64 105 -79 149 -123 361 -20 97 -20 7543 0 7640 35 167 46
211 77 287 52 134 126 224 247 304 124 81 216 115 422 154 116 22 1152 22
1270 0 289 -55 463 -150 582 -318 95 -136 137 -251 149 -410 3 -49 11 -101 17
-115 7 -17 13 -163 17 -379 7 -412 0 -388 109 -387 37 0 105 5 152 12 121 17
2523 16 2630 0 93 -15 216 -16 230 -2 26 26 30 167 30 1099 0 940 1 974 20
1065 27 124 49 185 102 278 68 121 210 249 333 301 94 39 226 71 294 71 73 1
238 16 316 29 71 12 1118 12 1185 0z m9814 -4806 c539 -1242 1010 -2321 1047
-2398 84 -172 135 -252 214 -331 94 -94 176 -126 368 -140 l97 -7 0 -63 0 -64
-1035 0 -1035 0 0 64 0 64 83 7 c214 17 351 87 408 210 36 76 39 173 8 285
-11 41 -118 297 -237 568 l-216 492 -1015 -2 -1015 -3 -223 -510 c-123 -280
-232 -539 -243 -574 -29 -91 -27 -201 4 -266 58 -122 192 -187 419 -202 l97
-6 0 -64 0 -63 -730 0 -730 0 0 65 0 64 38 7 c258 44 384 162 563 529 78 161
148 319 1364 3093 l659 1502 66 0 66 0 978 -2257z m6066 2015 c0 -42 29 -925
34 -1025 l5 -103 -73 0 -74 0 -7 55 c-12 102 -55 239 -107 345 -45 90 -64 117
-138 190 -94 94 -163 139 -267 175 -143 50 -208 55 -724 55 l-479 0 0 -2072
c0 -2282 -4 -2137 62 -2260 55 -104 145 -163 314 -208 69 -18 247 -40 327 -40
27 0 27 -1 27 -65 l0 -65 -1130 0 -1130 0 0 63 0 64 138 11 c162 14 242 32
337 77 90 43 149 102 191 190 67 141 64 30 64 2276 l0 2029 -496 0 c-314 0
-522 -4 -567 -11 -169 -26 -331 -111 -447 -235 -121 -129 -176 -267 -216 -541
l-5 -33 -64 0 -65 0 0 88 c0 48 7 272 15 497 8 226 15 445 15 488 l0 77 2230
0 2230 0 0 -22z m3411 -1833 l1624 -1855 3 1568 c2 1068 -1 1588 -8 1632 -25
151 -76 244 -166 296 -82 48 -172 65 -371 71 l-183 5 0 69 0 69 930 0 930 0 0
-69 0 -68 -237 -6 c-154 -4 -258 -11 -293 -20 -139 -35 -195 -95 -236 -252
-17 -67 -18 -175 -21 -2377 l-3 -2308 -58 1 -57 0 -1795 2024 -1795 2023 -3
-1586 c-2 -1040 1 -1625 8 -1697 29 -317 138 -468 380 -534 84 -23 217 -41
297 -41 l53 0 0 -65 0 -65 -915 0 -915 0 0 65 0 65 58 0 c94 0 242 19 320 40
164 45 273 124 325 234 66 138 61 -9 64 2045 l4 1863 -33 52 c-107 170 -239
307 -378 390 -140 85 -367 146 -542 146 l-78 0 0 70 0 70 733 0 733 0 1625
-1855z m-14259 -11101 l3 -1576 455 431 c551 523 612 585 635 645 40 104 -27
181 -170 195 l-60 6 -3 63 -3 62 711 0 710 0 0 -60 c0 -41 -4 -60 -12 -60 -7
0 -76 -5 -153 -10 -230 -17 -370 -63 -553 -183 -144 -94 -246 -183 -653 -569
-326 -309 -367 -352 -356 -367 65 -92 940 -1216 1020 -1311 310 -371 495 -496
765 -517 l82 -6 0 -63 0 -64 -770 0 -770 0 0 64 0 63 53 7 c78 10 136 42 154
84 18 43 5 116 -33 180 -32 54 -1032 1356 -1045 1361 -7 2 -9 -211 -7 -620 4
-604 5 -627 26 -702 40 -147 112 -239 210 -271 59 -19 169 -36 245 -36 l57 0
0 -65 0 -65 -820 0 -821 0 3 63 3 62 100 8 c113 8 214 35 266 69 77 52 130
174 149 343 6 57 10 736 10 1840 -1 1860 0 1840 -48 1947 -26 60 -84 114 -144
134 -55 18 -177 24 -249 11 l-46 -8 -21 56 -20 56 21 10 c12 5 229 90 482 189
431 168 464 179 527 180 l68 0 2 -1576z m-11057 1366 c277 -16 578 -74 786
-151 352 -129 643 -387 750 -663 58 -150 73 -241 73 -441 0 -153 -3 -192 -21
-262 -101 -380 -380 -653 -786 -768 -32 -9 -56 -19 -54 -21 3 -3 51 -16 108
-29 367 -84 675 -315 841 -631 178 -338 167 -759 -29 -1097 -220 -379 -668
-625 -1233 -676 -73 -7 -576 -11 -1378 -11 l-1263 0 3 63 3 62 125 6 c274 14
418 85 495 242 72 148 68 53 72 1892 4 1717 2 1869 -37 2019 -45 178 -128 258
-315 306 -63 16 -255 40 -322 40 -21 0 -23 5 -23 58 0 32 3 62 7 65 10 11
2010 8 2198 -3z m17515 -1030 l0 -510 365 0 365 0 0 -105 0 -105 -365 0 -366
0 3 -1167 3 -1168 26 -71 c47 -130 120 -216 219 -262 25 -11 67 -16 150 -16
111 -1 118 0 182 32 63 31 187 140 225 199 14 20 24 23 84 23 38 0 69 -3 69
-7 0 -14 -99 -173 -157 -251 -185 -251 -374 -374 -619 -402 -375 -43 -634 158
-727 565 -20 88 -21 119 -24 1308 l-4 1217 -244 0 -245 0 0 68 0 67 98 46
c246 118 455 300 613 534 71 105 166 296 204 410 14 44 28 86 30 93 3 7 24 12
60 12 l55 0 0 -510z m-13115 -460 c289 -65 532 -194 745 -397 431 -409 595
-952 470 -1551 -110 -527 -479 -1011 -954 -1249 -343 -172 -758 -205 -1122
-88 -100 33 -277 119 -375 184 -345 229 -604 621 -684 1036 -38 196 -36 464 5
677 51 267 185 551 368 782 268 339 689 580 1095 626 116 14 349 3 452 -20z
m3820 0 c292 -66 533 -195 750 -402 426 -407 589 -949 465 -1546 -110 -527
-479 -1011 -954 -1249 -343 -172 -758 -205 -1122 -88 -100 33 -277 119 -375
184 -362 240 -623 651 -694 1091 -30 186 -21 460 21 655 53 249 189 531 362
749 268 339 689 580 1095 626 116 14 349 3 452 -20z m6905 6 c41 -8 131 -31
200 -52 146 -43 253 -51 307 -21 22 11 54 17 103 17 l70 0 -2 -487 -3 -488
-62 -3 -62 -3 -6 38 c-72 424 -320 738 -639 808 -93 21 -253 16 -350 -11 -148
-40 -273 -139 -316 -249 -28 -74 -37 -185 -20 -256 24 -103 58 -159 150 -249
102 -100 186 -154 535 -342 138 -74 293 -161 345 -192 259 -157 477 -345 553
-476 71 -122 107 -273 107 -446 0 -192 -44 -356 -130 -488 -55 -83 -179 -211
-259 -265 -211 -144 -516 -220 -765 -191 -127 14 -294 49 -455 95 -167 47
-210 52 -266 30 -25 -9 -45 -21 -45 -26 0 -5 -36 -9 -80 -9 l-80 0 0 540 0
540 64 0 63 0 7 -59 c9 -78 50 -228 85 -313 117 -277 372 -501 641 -563 240
-55 442 -10 587 131 112 109 156 243 134 407 -21 161 -70 248 -203 366 -100
87 -177 138 -428 281 -118 67 -267 152 -329 188 -338 194 -468 311 -562 507
-57 118 -71 181 -76 346 -6 168 9 267 58 386 117 279 411 484 754 524 94 10
283 3 375 -15z m5669 -1 c255 -50 511 -177 724 -360 251 -216 455 -561 522
-884 37 -181 39 -441 4 -637 -124 -698 -652 -1286 -1291 -1439 -139 -33 -338
-48 -471 -36 -364 35 -668 179 -939 448 -365 361 -532 866 -463 1396 104 790
739 1444 1485 1527 107 12 330 4 429 -15z m2861 -300 c0 -179 3 -325 8 -325 4
1 28 36 55 80 73 122 156 227 253 320 154 148 289 218 463 241 226 31 407 -55
490 -231 22 -47 26 -69 26 -150 0 -82 -4 -102 -25 -144 -48 -94 -174 -176
-270 -176 -107 0 -151 22 -320 162 -97 80 -136 94 -223 79 -153 -27 -256 -130
-436 -433 l-22 -37 4 -913 c3 -795 6 -922 20 -985 21 -96 47 -151 93 -203 72
-80 159 -108 367 -117 l127 -6 0 -64 0 -63 -850 0 -850 0 0 65 0 65 63 0 c90
0 173 17 243 51 101 48 156 127 190 274 18 75 19 139 19 1065 0 911 -1 991
-18 1061 -34 147 -91 200 -235 221 -76 11 -101 8 -207 -27 -18 -5 -23 1 -39
50 -10 31 -16 59 -13 61 2 3 218 94 478 203 450 189 477 199 542 200 l67 1 0
-325z m3180 300 c446 -90 785 -415 901 -865 26 -99 49 -258 49 -342 l0 -68
-1085 0 -1085 0 0 -92 c1 -625 346 -1213 813 -1386 115 -43 196 -57 337 -56
150 0 236 16 359 65 145 58 290 180 390 328 47 68 132 235 151 294 6 20 15 37
20 37 14 0 100 -52 100 -60 0 -5 -13 -61 -30 -124 -153 -596 -547 -997 -1055
-1077 -113 -17 -332 -15 -435 5 -373 71 -674 285 -876 624 -169 283 -244 591
-244 1009 0 359 58 650 181 913 93 197 187 330 331 465 207 196 456 309 768
349 67 8 336 -4 410 -19z"/>
<path d="M9085 27484 c-168 -34 -278 -76 -333 -127 -43 -39 -69 -108 -93 -244
-6 -32 -8 -1774 -7 -4432 l3 -4380 23 -23 23 -23 871 -3 c871 -2 872 -2 943
19 148 46 222 107 260 213 l25 69 0 4297 0 4297 -22 69 c-47 151 -121 216
-278 244 -36 7 -85 16 -110 20 -44 9 -1265 12 -1305 4z"/>
<path d="M2956 26216 c-110 -38 -152 -71 -192 -148 l-24 -47 0 -3754 0 -3754
36 -72 c31 -61 44 -77 95 -110 41 -26 88 -46 147 -60 85 -21 103 -22 659 -19
l572 3 23 23 23 23 0 3847 0 3847 -36 70 c-44 84 -67 106 -139 135 -30 12 -66
27 -80 33 -18 9 -168 13 -505 15 l-480 2 -99 -34z"/>
<path d="M12775 26205 c-33 -8 -101 -14 -152 -15 -50 0 -104 -5 -120 -11 -15
-5 -89 -14 -164 -18 -75 -4 -141 -11 -147 -15 -7 -4 -63 -11 -126 -16 -114
-10 -140 -17 -262 -77 -80 -39 -132 -110 -146 -201 -13 -80 -5 -384 11 -427 6
-16 15 -77 21 -135 5 -58 14 -125 19 -150 6 -25 10 -92 11 -150 0 -58 7 -132
15 -165 8 -33 15 -89 15 -125 1 -36 5 -85 11 -110 5 -25 16 -103 24 -175 8
-71 18 -148 24 -170 6 -22 11 -80 11 -130 0 -49 7 -115 15 -145 8 -30 15 -86
15 -123 0 -37 6 -100 14 -140 8 -40 17 -130 19 -202 3 -71 10 -143 16 -158 6
-16 14 -67 17 -115 3 -48 12 -109 20 -136 8 -27 14 -81 14 -120 1 -39 5 -91
11 -116 6 -25 14 -103 20 -175 5 -71 14 -143 19 -159 5 -15 12 -78 16 -140 3
-61 11 -127 16 -146 6 -19 14 -98 18 -175 4 -77 12 -169 18 -205 21 -124 32
-216 42 -350 6 -74 15 -146 21 -160 6 -14 15 -86 19 -160 5 -74 13 -153 19
-175 6 -22 11 -64 11 -93 0 -29 6 -85 14 -125 8 -40 17 -128 19 -197 3 -69 10
-138 16 -153 6 -16 14 -74 17 -130 4 -56 13 -127 20 -157 8 -30 14 -87 14
-128 0 -41 6 -100 14 -131 8 -31 17 -109 20 -173 3 -64 10 -128 16 -142 5 -13
12 -71 15 -128 4 -57 13 -135 21 -175 8 -40 14 -115 14 -167 0 -52 7 -121 15
-153 8 -31 15 -82 15 -113 0 -30 6 -82 14 -115 8 -33 17 -90 21 -128 14 -136
64 -242 136 -287 101 -62 135 -70 297 -70 81 0 163 5 182 11 19 6 105 14 190
19 85 5 191 13 235 19 44 7 116 16 160 22 346 44 429 79 497 209 22 43 23 55
23 250 0 145 -4 216 -13 243 -8 20 -17 101 -22 180 -5 78 -13 162 -19 187 -6
25 -10 72 -11 105 0 33 -7 87 -15 120 -8 33 -15 92 -15 130 0 39 -7 97 -15
128 -8 32 -15 97 -16 145 0 48 -5 112 -10 142 -5 30 -14 98 -20 150 -6 52 -17
125 -25 161 -8 37 -14 109 -14 160 0 52 -7 125 -15 164 -8 38 -15 97 -16 130
0 33 -5 85 -10 115 -5 30 -14 109 -19 175 -6 66 -15 134 -21 150 -6 17 -14 89
-18 161 -4 72 -11 136 -16 144 -4 7 -11 68 -16 135 -5 68 -14 136 -19 151 -6
15 -13 89 -16 164 -3 74 -10 150 -16 168 -5 18 -14 78 -18 135 -5 56 -14 122
-19 147 -6 25 -10 73 -11 108 0 35 -6 93 -14 130 -8 37 -17 123 -20 192 -2 69
-10 138 -16 154 -6 16 -15 76 -20 135 -5 58 -14 122 -19 141 -6 19 -11 80 -11
135 -1 55 -7 129 -15 165 -8 36 -14 94 -15 130 0 36 -6 103 -15 150 -8 47 -19
130 -24 185 -6 55 -15 120 -20 145 -6 25 -10 83 -11 130 0 47 -7 110 -15 140
-8 30 -15 77 -15 103 0 26 -6 80 -14 120 -8 40 -17 131 -20 204 -3 72 -10 143
-16 157 -5 14 -12 74 -16 133 -3 60 -13 133 -20 163 -8 30 -14 84 -14 120 -1
36 -5 85 -11 110 -5 25 -14 81 -19 125 -17 137 -45 197 -122 271 -38 35 -80
66 -95 69 -16 4 -39 11 -53 17 -39 18 -265 19 -335 3z"/>
<path d="M5255 24640 c-86 -12 -146 -33 -201 -73 -56 -40 -83 -74 -113 -140
l-21 -46 2 -3045 c3 -2908 4 -3046 21 -3063 17 -17 94 -18 1525 -21 1053 -2
1518 0 1544 8 32 9 38 16 45 48 4 20 8 1385 8 3032 0 2953 0 2996 -20 3060
-31 105 -111 173 -260 224 -59 20 -78 20 -1265 22 -663 1 -1232 -2 -1265 -6z
m2172 -677 c58 -31 90 -68 113 -131 24 -64 25 -85 4 -144 -19 -58 -81 -120
-154 -156 l-55 -27 -840 0 c-931 0 -867 -4 -976 66 -104 66 -120 223 -34 335
24 32 76 61 130 75 17 4 422 7 900 6 l870 -2 42 -22z m-15 -4606 c93 -46 156
-147 143 -230 -12 -79 -71 -163 -139 -200 l-41 -22 -865 0 c-980 0 -932 -4
-1012 76 -51 51 -68 94 -68 175 0 70 33 130 94 172 95 63 57 61 986 59 l845
-2 57 -28z"/>
<path d="M18379 23242 l-445 -1017 449 -3 c247 -1 648 -1 891 0 l443 3 -444
1014 c-244 558 -445 1016 -446 1018 -2 1 -204 -455 -448 -1015z"/>
<path d="M3860 13470 c-63 -5 -159 -15 -212 -24 -54 -9 -100 -16 -103 -16 -3
0 -5 -416 -5 -924 l0 -924 48 -10 c431 -91 722 -83 956 26 417 196 624 621
530 1089 -86 425 -458 744 -909 778 -160 12 -192 12 -305 5z"/>
<path d="M3635 11263 c-27 -2 -60 -6 -72 -8 l-23 -5 0 -984 0 -983 78 -21
c205 -55 403 -74 616 -60 316 21 547 117 737 307 173 173 261 376 276 632 35
612 -411 1048 -1145 1119 -91 9 -354 11 -467 3z"/>
<path d="M8065 11976 c-359 -82 -599 -411 -676 -931 -17 -115 -17 -456 0 -595
63 -506 271 -950 550 -1172 145 -116 281 -167 466 -175 246 -11 417 56 582
230 176 185 282 438 323 772 14 114 14 430 0 555 -56 496 -248 907 -533 1135
-89 72 -228 146 -322 171 -82 22 -310 28 -390 10z"/>
<path d="M11885 11975 c-131 -28 -259 -98 -351 -193 -174 -176 -276 -408 -325
-737 -17 -115 -17 -456 0 -595 63 -506 271 -950 550 -1172 143 -114 281 -166
462 -175 241 -12 422 58 580 223 181 190 287 443 329 779 14 114 14 430 0 555
-77 685 -413 1191 -867 1306 -110 28 -275 32 -378 9z"/>
<path d="M24495 11980 c-233 -49 -431 -215 -558 -465 -35 -70 -92 -243 -111
-340 -54 -271 -48 -656 14 -944 79 -365 219 -653 419 -863 175 -185 365 -268
609 -268 434 0 751 351 848 936 14 83 18 164 18 339 0 265 -15 401 -69 609
-82 322 -201 543 -395 736 -123 122 -218 183 -360 231 -86 29 -108 32 -235 35
-77 2 -158 -1 -180 -6z"/>
<path d="M30510 11971 c-92 -26 -113 -35 -193 -87 -206 -133 -344 -374 -386
-671 l-8 -53 720 0 720 0 -6 88 c-22 300 -172 573 -371 674 -133 67 -335 88
-476 49z"/>
</g>
</svg>
